<?xml version="1.0" encoding="UTF-8"?>
<svg id="Layer_1" data-name="Layer 1" xmlns="http://www.w3.org/2000/svg" viewBox="0 0 252 252">
  <defs>
    <style>
      .cls-1 {
        fill: #5f81aa;
      }

      .cls-2 {
        fill: #6f738d;
      }

      .cls-3 {
        fill: #fff;
      }

      .cls-4 {
        fill: #54709c;
      }

      .cls-5 {
        fill: #cdceca;
      }

      .cls-6 {
        fill: #a2a4a2;
      }

      .cls-7 {
        fill: #233866;
      }
    </style>
  </defs>
  <path class="cls-1" d="M122.93,204.07c-.16-.22-.39-.12-.59-.12-3.49.01-6.97-.19-10.45-.42-4.59-.31-9.16-.8-13.72-1.42-7.18-.98-14.28-2.36-21.29-4.19-7.75-2.02-15.32-4.57-22.66-7.76-7.14-3.11-13.97-6.77-20.37-11.21-3.66-2.54-7.13-5.31-10.38-8.37-3.62-3.4-6.88-7.11-9.68-11.22-3.64-5.36-6.28-11.17-7.62-17.53-.49-2.32-.82-4.66-.87-7.04,0-.16.07-.36-.13-.47v-2.89c.22-.15.12-.39.13-.58.24-5.15,1.39-10.09,3.35-14.86,2.6-6.35,6.43-11.91,11.05-16.94,4.39-4.78,9.35-8.89,14.69-12.55,7.18-4.92,14.88-8.87,22.94-12.15,7.36-3,14.93-5.38,22.65-7.23,6.14-1.47,12.35-2.63,18.61-3.46,3.95-.53,7.91-.96,11.88-1.25,3.25-.24,6.5-.39,9.75-.49,3.55-.11,7.09-.11,10.64-.04,4.72.09,9.43.35,14.13.8,6.57.63,13.1,1.55,19.59,2.82,8.09,1.58,16.02,3.7,23.79,6.44,6.41,2.26,12.62,4.96,18.63,8.13,6.06,3.21,11.8,6.91,17.12,11.25,5.73,4.68,10.81,9.97,14.85,16.21,3.31,5.11,5.69,10.62,6.95,16.59.79,3.77,1.07,7.59.82,11.44-.5,7.77-2.96,14.91-7,21.54-3.46,5.67-7.82,10.59-12.77,15-5.81,5.18-12.22,9.49-19.06,13.19-8.75,4.73-17.93,8.37-27.46,11.19-5.08,1.5-10.22,2.77-15.42,3.8-4.53.9-9.09,1.62-13.68,2.19-3.65.45-7.31.79-10.97,1.08-1.94.15-3.89.18-5.83.3-1.56.09-3.12.09-4.68.12-.16,0-.35-.08-.47.13h-6.48ZM125.43,202.62c4.68,0,8.82-.11,12.95-.36,3.06-.18,6.11-.43,9.15-.75,5.08-.53,10.13-1.25,15.14-2.2,8.64-1.63,17.14-3.83,25.43-6.78,7.6-2.71,14.95-5.98,21.95-10.02,6.38-3.68,12.35-7.93,17.71-13,4.49-4.24,8.43-8.94,11.51-14.32,4.38-7.66,6.61-15.84,6.11-24.71-.22-3.83-.95-7.56-2.17-11.19-2.51-7.45-6.73-13.86-12.06-19.58-4.58-4.92-9.75-9.13-15.34-12.85-7.09-4.71-14.65-8.51-22.55-11.66-6.92-2.76-14.01-4.96-21.25-6.71-5.41-1.31-10.87-2.35-16.38-3.17-4.21-.63-8.44-1.1-12.67-1.47-4.51-.39-9.03-.59-13.56-.67-6.07-.1-12.14.08-18.19.53-2.98.22-5.95.48-8.91.83-4.26.5-8.51,1.13-12.73,1.92-5.51,1.03-10.97,2.29-16.36,3.84-6.86,1.98-13.56,4.37-20.07,7.31-7.65,3.45-14.92,7.55-21.62,12.61-4.83,3.65-9.27,7.7-13.13,12.38-3.67,4.44-6.68,9.28-8.78,14.66-2.59,6.62-3.52,13.46-2.71,20.53.56,4.9,1.98,9.57,4.11,14.02,2.51,5.26,5.88,9.94,9.83,14.2,4.2,4.52,8.91,8.46,13.98,11.96,6.67,4.6,13.8,8.35,21.26,11.51,7.2,3.05,14.61,5.48,22.18,7.4,7.81,1.98,15.72,3.41,23.72,4.35,4.88.58,9.77.98,14.67,1.21,3.1.14,6.2.23,8.77.18Z"/>
  <path class="cls-3" d="M125.43,202.62c-2.57.04-5.67-.04-8.77-.18-4.9-.23-9.8-.63-14.67-1.21-8-.94-15.92-2.37-23.72-4.35-7.57-1.92-14.98-4.35-22.18-7.4-7.45-3.16-14.59-6.91-21.26-11.51-5.08-3.5-9.78-7.43-13.98-11.96-3.95-4.26-7.32-8.94-9.83-14.2-2.13-4.45-3.55-9.11-4.11-14.02-.81-7.07.12-13.91,2.71-20.53,2.1-5.38,5.11-10.22,8.78-14.66,3.86-4.67,8.3-8.73,13.13-12.38,6.71-5.06,13.97-9.16,21.62-12.61,6.51-2.94,13.21-5.33,20.07-7.31,5.39-1.55,10.85-2.81,16.36-3.84,4.22-.79,8.46-1.42,12.73-1.92,2.96-.35,5.93-.61,8.91-.83,6.06-.45,12.12-.63,18.19-.53,4.53.08,9.05.29,13.56.67,4.24.36,8.46.84,12.67,1.47,5.51.82,10.97,1.86,16.38,3.17,7.24,1.75,14.33,3.96,21.25,6.71,7.9,3.15,15.46,6.94,22.55,11.66,5.59,3.72,10.76,7.93,15.34,12.85,5.32,5.72,9.55,12.13,12.06,19.58,1.22,3.63,1.96,7.36,2.17,11.19.5,8.87-1.73,17.05-6.11,24.71-3.08,5.38-7.02,10.08-11.51,14.32-5.36,5.06-11.33,9.31-17.71,13-7,4.04-14.34,7.31-21.95,10.02-8.29,2.96-16.79,5.16-25.43,6.78-5.01.94-10.06,1.67-15.14,2.2-3.04.32-6.1.56-9.15.75-4.14.25-8.28.36-12.95.36ZM126.42,67.01c-3.77-.02-7.14.05-10.51.22-3.92.2-7.84.5-11.74.93-4.31.48-8.59,1.08-12.86,1.83-8.49,1.5-16.83,3.59-24.99,6.38-7.29,2.49-14.34,5.53-21.09,9.25-6.73,3.71-13.01,8.04-18.62,13.29-4.43,4.14-8.3,8.74-11.26,14.06-4.19,7.51-6.12,15.5-5.18,24.11.49,4.49,1.75,8.75,3.67,12.82,2.63,5.59,6.28,10.46,10.58,14.85,4.47,4.56,9.49,8.45,14.85,11.89,5.78,3.7,11.87,6.79,18.19,9.44,5.21,2.18,10.54,4.03,15.97,5.6,6.76,1.96,13.62,3.47,20.56,4.6,5.17.84,10.37,1.45,15.59,1.88,4.19.34,8.38.55,12.58.63,2.95.06,5.9.04,8.85-.03,3.35-.09,6.7-.25,10.04-.49,3.3-.23,6.6-.56,9.88-.97,4.85-.6,9.68-1.39,14.47-2.37,8-1.64,15.84-3.8,23.5-6.62,7.74-2.85,15.19-6.31,22.23-10.62,5.12-3.14,9.94-6.69,14.33-10.79,2.85-2.66,5.47-5.53,7.79-8.68,3.78-5.13,6.59-10.72,7.99-16.97,1.13-5.04,1.24-10.11.31-15.19-1.06-5.81-3.36-11.12-6.58-16.04-2.63-4.02-5.76-7.61-9.25-10.9-2.43-2.29-4.99-4.42-7.68-6.39-5.39-3.96-11.13-7.32-17.16-10.21-4.57-2.2-9.25-4.12-14.04-5.8-9.82-3.44-19.9-5.85-30.19-7.44-5.71-.88-11.45-1.51-17.21-1.89-4.46-.29-8.93-.46-13-.4Z"/>
  <path class="cls-2" d="M126.42,67.01c4.07-.06,8.54.11,13,.4,5.76.38,11.5,1.01,17.21,1.89,10.28,1.59,20.36,4,30.19,7.44,4.79,1.68,9.47,3.6,14.04,5.8,6.03,2.89,11.77,6.25,17.16,10.21,2.69,1.98,5.25,4.1,7.68,6.39,3.49,3.29,6.62,6.88,9.25,10.9,3.22,4.92,5.52,10.22,6.58,16.04.93,5.09.82,10.15-.31,15.19-1.4,6.25-4.2,11.84-7.99,16.97-2.32,3.14-4.94,6.01-7.79,8.68-4.39,4.1-9.21,7.65-14.33,10.79-7.04,4.31-14.49,7.77-22.23,10.62-7.66,2.82-15.51,4.98-23.5,6.62-4.79.98-9.62,1.77-14.47,2.37-3.28.41-6.58.74-9.88.97-3.34.23-6.69.4-10.04.49-2.95.08-5.9.1-8.85.03-4.2-.09-8.39-.29-12.58-.63-5.22-.43-10.42-1.04-15.59-1.88-6.94-1.13-13.8-2.64-20.56-4.6-5.43-1.58-10.76-3.42-15.97-5.6-6.32-2.65-12.42-5.73-18.19-9.44-5.37-3.44-10.38-7.33-14.85-11.89-4.3-4.39-7.96-9.26-10.58-14.85-1.92-4.08-3.18-8.34-3.67-12.82-.93-8.61.99-16.6,5.18-24.11,2.97-5.32,6.83-9.92,11.26-14.06,5.62-5.25,11.9-9.58,18.62-13.29,6.75-3.72,13.8-6.75,21.09-9.25,8.16-2.79,16.5-4.89,24.99-6.38,4.27-.75,8.55-1.36,12.86-1.83,3.9-.43,7.82-.73,11.74-.93,3.37-.17,6.74-.24,10.51-.22ZM126.01,69.75c-1.62.04-3.24.02-4.85.07-3.25.1-6.5.25-9.75.47-3.98.27-7.94.69-11.89,1.22-6.63.89-13.19,2.12-19.67,3.75-7.47,1.88-14.77,4.25-21.86,7.25-5.99,2.54-11.77,5.48-17.24,9-6.44,4.13-12.34,8.89-17.32,14.74-3.57,4.2-6.49,8.8-8.42,13.99-2.14,5.77-2.84,11.69-1.95,17.78.81,5.58,2.88,10.69,5.87,15.44,3.88,6.17,8.94,11.27,14.64,15.75,7.74,6.08,16.31,10.73,25.37,14.48,7.49,3.1,15.2,5.51,23.09,7.38,7.13,1.69,14.33,2.9,21.61,3.74,4.34.5,8.7.85,13.07,1.03,3.68.15,7.35.24,11.04.19,4.1-.06,8.2-.2,12.3-.48,3.46-.23,6.91-.56,10.35-.98,5.01-.61,9.98-1.42,14.92-2.45,6.91-1.44,13.71-3.27,20.37-5.61,8.61-3.02,16.88-6.76,24.63-11.6,6.5-4.06,12.49-8.75,17.58-14.52,3.1-3.51,5.76-7.32,7.77-11.57,2.83-5.97,4.11-12.23,3.57-18.85-.37-4.59-1.63-8.93-3.59-13.07-2.24-4.73-5.27-8.91-8.83-12.72-3.52-3.77-7.44-7.09-11.65-10.08-6.28-4.46-13.02-8.09-20.07-11.15-8.23-3.57-16.73-6.27-25.45-8.32-5.96-1.41-11.99-2.46-18.06-3.26-5.12-.67-10.26-1.12-15.41-1.38-3.39-.17-6.78-.29-10.17-.26Z"/>
  <path class="cls-5" d="M67.99,136.88c-.07.25-.2.42-.48.44-.38-.57-1.06-.72-1.55-1.13-.42-.34-.71-.26-1.07.12-2,2.1-4.47,3.5-7.12,4.59-3.36,1.38-6.88,2.14-10.48,2.58-.41.05-.92-.15-1.26.29-1.61-.14-3.22-.05-4.83-.17-1.38-.1-2.74-.28-4.12-.39-.51-.04-1.03-.09-1.54-.19-.39-.07-.76.02-1.14.05-.02-.24-.2-.2-.35-.19-.84.03-1.67-.09-2.52-.02-.94.08-1.03.1-1.02,1.02,0,.36-.09.5-.48.52-.57.03-1.14.14-1.7.22-.93.09-1.87.16-2.8.29-.76.11-.81.1-.81-.63,0-9.23,0-18.46,0-27.69,0-.75,0-.73.77-.77,1.74-.09,3.48-.2,5.23-.32.28-.02.38.11.48.31,0,.19-.02.39.02.58.28,1.31.41,2.65.53,3.98.2,2.14.53,4.26,1.07,6.34.61,2.4,1.18,4.82,2.51,6.96,1.9,3.07,4.49,4.91,8.28,4.6.15-.01.37.09.4-.19,1.68.36,3.59-.86,4.06-2.08.22-.58.37-1.18.37-1.79,0-11.1,0-22.2.01-33.3,0-.46-.13-.56-.58-.59-1.44-.1-2.88-.11-4.32-.1-.32,0-.44-.11-.44-.43.01-1.37.01-2.74,0-4.1,0-.33.12-.46.44-.43.11.01.23,0,.35,0,31.15,0,62.29,0,93.44.01.25,0,.59-.18.76.19-1,0-2,.01-3.01,0-.27,0-.49,0-.49.38.02,1.44.03,2.89.04,4.33-.28.01-.56.03-.84.04-1.12-.26-2.26-.08-3.38-.1-.26,0-.14.22-.09.35.15.42.31.83.46,1.24,1.36,3.57,2.72,7.14,4.09,10.71.88,2.3,1.76,4.59,2.64,6.88.05.12.06.3.22.3.16,0,.18-.18.24-.29.44-.83.9-1.66,1.29-2.51.16-.34.47-.63.42-1.05.24-.1.29-.35.39-.55,1.11-2.2,2.21-4.41,3.32-6.61,1.31-2.59,2.63-5.18,3.94-7.77.29-.58.29-.6-.35-.59-1.67.03-3.34-.21-5.01-.12-.4.02-.55-.14-.54-.54.02-1.29.01-2.58,0-3.87,0-.32.1-.47.43-.44.1,0,.19,0,.29,0,17.44,0,34.88-.02,52.31.03,1.76,0,3.54,0,5.3.13,0,.2.16.17.29.19,1.16.16,2.32.31,3.45.58,2.51.58,4.89,1.41,6.97,3.02,3.64,2.83,4.26,7.54,2.58,11.35-1.08,2.45-2.96,4.17-5.26,5.47-.14.08-.39.1-.37.3.01.15.23.16.37.22,3.18,1.35,6.01,3.18,8.08,6.02,1.83,2.52,2.84,5.29,2.33,8.43-.44,2.69-1.68,4.98-3.73,6.84-2.2,2-4.79,3.15-7.61,3.93-1.59.44-3.22.67-4.89.94.34.19.7-.05.98.18-.77.24-1.56.1-2.33.08-.26,0-.53-.07-.8-.07-1.6,0-3.19-.09-4.79-.15-2.22-.09-4.43-.36-6.65-.54-1.36-.11-2.72-.16-4.08-.25-2.03-.14-4.05-.3-6.08-.44-1.3-.09-2.6-.16-3.91-.24-2.53-.15-5.06-.31-7.58-.46-.77-.05-1.53-.1-2.3-.12-.36,0-.46-.13-.46-.48.01-1.31.02-2.62,0-3.93,0-.36.13-.47.47-.46.56.02,1.11.04,1.67.11.87.11,1.75-.16,2.63,0,.32.06.47-.09.44-.42-.01-.11,0-.23,0-.35,0-11.37,0-22.75,0-34.12,0-.85,0-.87-.86-.85-1.58.03-3.16-.1-4.73.09-.34.04-.69-.02-1.04-.03-.06-.3-.31-.16-.47-.18-1.1-.08-2.19.12-3.28.1-1.31-.02-2.19.55-2.77,1.75-1.97,4.13-3.99,8.25-6,12.36-2,4.1-4.01,8.2-6.03,12.29-2.05,4.16-4.12,8.32-6.18,12.49-.1.2-.27.39-.2.64-1.75,0-3.51.12-5.26-.01-1.19-.09-2.37-.2-3.56-.18-.29,0-.46-.1-.58-.36-.99-2.15-1.99-4.29-2.98-6.44-1.09-2.37-2.17-4.75-3.26-7.13-.48-1.05-.95-2.1-1.44-3.14-.12-.26-.15-.61-.5-.72-.08-.83-.57-1.5-.87-2.25-.24-.61-.57-1.19-.91-1.89-.6,1.37-1.17,2.63-1.72,3.89-1.42,3.28-2.83,6.57-4.25,9.85-1.1,2.56-2.21,5.12-3.32,7.68-.16.38-.07.52.35.53.55.01,1.11-.12,1.65.09-.17.19-.4.11-.6.11-1.87.01-3.74.09-5.61,0-1.29-.07-2.57-.08-3.85-.1-.24,0-.38-.1-.5-.31-1.7-2.95-3.4-5.89-5.11-8.83-1.88-3.24-3.77-6.47-5.65-9.72-1.44-2.5-2.87-5-4.29-7.51-2.39-4.19-4.77-8.38-7.15-12.58-.19-.34-.4-.51-.81-.5-2.02.02-4.05.01-6.07.02-.17-.18-.39-.13-.6-.13-.77,0-1.54.03-2.31-.01-.48-.02-.62.13-.62.62.01,11.87,0,23.73.01,35.6,0,.2-.07.43.13.59ZM102.36,100.16c-.12.01-.25.02-.37.04-.07-.03-.14-.09-.21-.09-1.04-.01-2.08-.03-3.12-.02-.38,0-.19.25-.11.4.33.65.68,1.29,1.02,1.94,2.35,4.35,4.69,8.7,7.04,13.04.51.95,1.02,1.89,1.54,2.84.06.11.1.28.27.27.18-.01.16-.19.22-.31.25-.56.52-1.11.75-1.69.2-.51.56-.98.47-1.58.21,0,.28-.13.36-.31,1.03-2.36,2.07-4.72,3.11-7.07.12-.27.11-.5-.01-.76-.97-2.09-1.93-4.19-2.87-6.29-.14-.3-.3-.39-.61-.38-.38.01-.77.03-1.15-.03-.96-.13-1.91-.15-2.86,0-.26.04-.54.09-.79-.07-.01-1.36-.04-2.72-.02-4.09,0-.47-.15-.6-.59-.57-.55.03-1.11.02-1.67,0-.29,0-.41.1-.41.4.02,1.44.02,2.88.02,4.32ZM137.57,123.76c-.21-.05-.2-.19-.24-.29-3.13-8.19-6.26-16.38-9.4-24.57-.16-.41-.11-.53.35-.53,1.37.02,2.74.01,4.11,0,.17,0,.44.07.47-.11.06-.39.11-.82.02-1.2-.08-.33-.47-.17-.71-.17-8.17,0-16.35-.01-24.52,0-1.09,0-.94-.22-.97.98-.01.42.15.52.54.51,1.18-.02,2.35.01,3.53-.02.41-.01.62.13.78.5,1.19,2.65,2.4,5.3,3.62,7.94.15.33.13.6-.01.92-1.8,4.07-3.59,8.15-5.39,12.22-.36.82-.73,1.64-1.09,2.45-.22-.06-.26-.2-.32-.31-4.17-7.74-8.33-15.47-12.51-23.21-.27-.49-.04-.48.33-.48,1.35,0,2.7,0,4.05-.02.16,0,.42.08.47-.11.12-.41.13-.86,0-1.25-.09-.27-.45-.13-.68-.13-8.46,0-16.93,0-25.39,0-1.15,0-.97-.2-1.01,1-.02.45.15.55.57.54,1.41-.02,2.81,0,4.22-.02.37,0,.58.1.77.44,2.17,3.86,4.35,7.72,6.56,11.56,5.19,9.02,10.41,18.03,15.6,27.05.24.41.5.54.96.52,1.62-.06,3.24-.09,4.86-.1.43,0,.64-.14.82-.53,3.15-7.31,6.31-14.61,9.47-21.92.26-.61.54-1.21.81-1.83.24.16.27.36.35.53,1.19,2.57,2.37,5.14,3.56,7.72,2.38,5.18,4.77,10.36,7.14,15.55.17.37.38.5.78.5,1.97.01,3.93.05,5.9.1.4.01.61-.11.79-.48,4.87-9.93,9.76-19.86,14.64-29.78,1.11-2.27,2.23-4.53,3.33-6.8.63-1.3,1.58-2.14,3.07-2.34,1.5-.2,3-.16,4.5-.19.17,0,.42.07.48-.09.15-.4.11-.85.04-1.25-.06-.33-.42-.18-.65-.18-6.03,0-12.07-.01-18.1,0-.99,0-.92-.22-.95.96,0,.43.13.57.56.56,1.16-.02,2.31,0,3.47.03.66.01,1.31.06,1.94.28.47.16.68.48.53.99-.13.47-.31.91-.53,1.34-3.6,7.12-7.21,14.24-10.81,21.35-.23.46-.47.91-.69,1.35ZM201.84,116.41c.93-.27,1.85-.5,2.75-.81,2.71-.96,5.05-2.41,6.55-4.95,1.71-2.88,2.02-7.89-2.44-10.72-1.92-1.22-4.05-1.87-6.26-2.29-3.14-.61-6.31-.73-9.5-.73-8.81-.01-17.62,0-26.43,0-1.11,0-.93-.18-.99.98-.02.5.18.57.61.56,1.39-.02,2.78.01,4.16,0,.43,0,.55.11.55.55-.01,12.78-.01,25.56,0,38.34,0,.41-.11.53-.52.5-1.21-.09-2.42-.18-3.64-.21-1.18-.04-1.01-.26-1.04,1,0,.36.08.5.47.53,4.6.27,9.2.54,13.79.85,4.69.31,9.38.67,14.07,1.01,3.37.24,6.74.3,10.08-.32,3-.55,5.88-1.43,8.37-3.29,4.47-3.35,5.5-8.65,2.55-13.24-1.64-2.54-3.98-4.26-6.66-5.55-2.06-.99-4.24-1.62-6.48-2.17ZM50.14,116.78c0,5.51,0,11.03,0,16.54,0,.48,0,.97-.06,1.44-.23,2.12-1.2,3.76-3.25,4.54-2.58.98-5.23,1.01-7.79-.08-2.7-1.14-4.54-3.23-5.76-5.84-1.67-3.58-2.49-7.4-3.02-11.29-.2-1.45-.35-2.91-.5-4.36-.04-.36-.17-.49-.55-.46-.69.07-1.39.12-2.08.1-.6-.02-.72.2-.72.77.02,8.1.01,16.19.01,24.29,0,.1,0,.19,0,.29-.03.3.1.42.41.38.57-.08,1.15-.15,1.72-.2.26-.02.37-.14.4-.39.08-.57.46-.84.99-1.01,1.65-.51,3.32-.34,4.99-.19,2.57.25,5.13.65,7.71.71,4.5.11,8.86-.67,13.11-2.13,3.14-1.08,6-2.63,8.31-5.07.5-.53,1.01-.81,1.72-.63.25.06.37,0,.35-.27,0-.15,0-.31,0-.46,0-11.45,0-22.9-.01-34.35,0-.52.12-.69.67-.68,1.37.04,2.74.01,4.11,0,.17,0,.42.08.48-.1.14-.4.11-.85.03-1.25-.07-.32-.43-.17-.65-.17-8.31,0-16.62,0-24.92,0-1.09,0-1.06,0-1.08,1.06,0,.45.15.55.57.54,1.37-.03,2.74.01,4.11-.03.57-.02.75.11.74.72-.03,5.86-.02,11.72-.02,17.58Z"/>
  <path class="cls-6" d="M202.97,142.87c-.28-.23-.64.01-.98-.18,1.67-.27,3.3-.5,4.89-.94,2.81-.78,5.41-1.93,7.61-3.93,2.05-1.86,3.29-4.15,3.73-6.84.51-3.14-.5-5.92-2.33-8.43-2.07-2.84-4.9-4.67-8.08-6.02-.14-.06-.36-.07-.37-.22-.02-.21.23-.22.37-.3,2.29-1.31,4.18-3.03,5.26-5.47,1.68-3.81,1.06-8.51-2.58-11.35-2.08-1.62-4.46-2.44-6.97-3.02-1.14-.27-2.3-.42-3.45-.58-.13-.02-.29.02-.29-.19.26.02.52.04.78.06.05.09.13.13.24.11,3.27-.02,6.44.51,9.51,1.63,2.42.89,4.52,2.24,5.93,4.48,1.04,1.66,1.36,3.47,1.26,5.41-.15,2.89-1.4,5.2-3.48,7.12-.76.71-1.6,1.32-2.53,1.82-.17.09-.48.12-.46.36.01.21.29.2.46.28,2.69,1.14,5.13,2.65,7.09,4.86,2.02,2.27,3.35,4.88,3.34,7.97-.01,3.61-1.58,6.54-4.32,8.84-2.82,2.36-6.19,3.45-9.74,4.08-.92.16-1.84.42-2.79.36-.08-.12-.16-.12-.23,0-.61.1-1.23.09-1.85.09Z"/>
  <path class="cls-6" d="M137.64,139.72c-.07-.26.1-.44.2-.64,2.06-4.16,4.12-8.32,6.18-12.49,2.02-4.09,4.03-8.19,6.03-12.29,2.01-4.12,4.03-8.23,6-12.36.58-1.21,1.46-1.77,2.77-1.75,1.1.01,2.19-.18,3.28-.1.16.01.41-.13.47.18-.22.01-.44.02-.66.04-.09-.11-.17-.09-.23.03-.93.07-1.49.6-1.88,1.41-2.19,4.48-4.39,8.96-6.59,13.43-2.61,5.32-5.23,10.65-7.85,15.97-1.31,2.66-2.63,5.32-3.95,7.97-.09.19-.22.36-.33.54-.58.06-1.17-.11-1.74.1-.57,0-1.14-.01-1.71-.02Z"/>
  <path class="cls-7" d="M109.32,156.57c1.02,0,2.04,0,3.06,0,.21,0,.51-.1.55.25.03.29.13.66-.28.78-.65.19-.77.67-.78,1.25-.02,1.33-.06,2.66.03,3.99.02.26.04.48-.27.61-2.63,1.1-5.32,1.88-8.2,1.58-4.03-.42-6.75-2.58-7.97-6.45-.88-2.79-.87-5.65.19-8.4,1.22-3.18,3.63-5.01,6.95-5.61,2.83-.51,5.61-.15,8.3.86.87.33.88.35.72,1.26-.19,1.08-.29,2.18-.35,3.27-.02.39-.17.54-.57.53-.4,0-.48-.21-.49-.55,0-.39-.07-.77-.05-1.15.02-.72-.36-1.18-.9-1.58-3.35-2.45-8.2-1.24-9.76,2.59-1.45,3.58-1.27,7.19.69,10.57,1.63,2.82,4.61,3.74,7.59,2.51.39-.16.57-.38.57-.81-.01-1.1-.01-2.2.02-3.29.02-.6-.28-.84-.82-.89-.46-.04-.92-.11-1.38-.11-.58,0-.49-.39-.51-.76-.02-.41.19-.47.54-.46,1.04.01,2.08,0,3.12,0h0Z"/>
  <path class="cls-6" d="M67.99,136.88c-.21-.16-.13-.39-.13-.59,0-11.87,0-23.73-.01-35.6,0-.48.13-.64.62-.62.77.04,1.54,0,2.31.01.21,0,.43-.06.6.13,0,.27-.03.54-.03.81,0,11.81,0,23.62,0,35.44,0,.13,0,.27,0,.4.03.42-.09.54-.47.28-.43-.3-.88-.55-1.3-.86-.42-.3-.76-.3-1.08.13-.14.18-.33.32-.5.48Z"/>
  <path class="cls-7" d="M117.13,157.38c.02,1.79-.02,3.58.08,5.37.03.61.25.88.85.88.26,0,.61-.06.61.41,0,.35-.06.52-.47.51-1.56-.03-3.12-.02-4.68,0-.27,0-.44-.03-.44-.36,0-.3.02-.5.41-.55,1-.13,1.04-.15,1.06-1.15.08-3.49.12-6.97-.02-10.46-.03-.81-.08-.84-.88-.88-.34-.02-.6-.06-.57-.51.02-.31.09-.44.44-.43,2,.11,4.01,0,6.01-.04.6-.01,1.2,0,1.78.15,1.05.25,1.67.91,1.87,1.96.36,1.92-.39,3.54-2.09,4.48-.39.21-.48.37-.24.77.96,1.67,1.88,3.36,2.85,5.02.28.48.52,1.04,1.19,1.17.32.06.18.38.19.59,0,.24-.18.25-.37.25-.89,0-1.77-.02-2.66,0-.33,0-.37-.21-.47-.41-.99-1.96-1.97-3.93-3.06-5.83-.18-.32-.39-.62-.6-.91-.23-.32-.18-.55.23-.51,2.43.22,3.06-3.19,2.12-4.67-.45-.71-2.18-1.2-2.88-.83-.24.12-.16.33-.17.51-.12,1.83-.07,3.66-.08,5.49Z"/>
  <path class="cls-6" d="M44.01,138.06c-.03.28-.25.18-.4.19-3.78.31-6.38-1.53-8.28-4.6-1.32-2.14-1.89-4.56-2.51-6.96-.53-2.08-.86-4.2-1.07-6.34-.13-1.33-.25-2.67-.53-3.98-.04-.18-.02-.38-.02-.58.42-.03.85-.06,1.27-.09.24.14.47.16.69-.03.48.03,1.03-.19,1.41.06.42.27.23.89.3,1.35.21,1.26.33,2.54.48,3.82.1.84.19,1.67.29,2.51-.05.1-.04.19.06.26.55,2.87,1.2,5.72,2.33,8.43,1.04,2.5,2.72,4.45,5.14,5.72.26.14.54.19.82.24Z"/>
  <path class="cls-6" d="M111.01,139.63c-.54-.2-1.1-.07-1.65-.09-.42-.01-.51-.15-.35-.53,1.11-2.56,2.21-5.12,3.32-7.68,1.42-3.28,2.83-6.57,4.25-9.85.55-1.26,1.11-2.52,1.72-3.89.34.69.66,1.27.91,1.89.29.75.79,1.42.87,2.25-1.46,3.39-2.92,6.78-4.37,10.17-.98,2.28-2,4.54-2.93,6.84-.29.73-.68.99-1.41.89-.11-.02-.23,0-.35,0Z"/>
  <path class="cls-6" d="M139.69,115.71c.05.42-.27.71-.42,1.05-.39.85-.85,1.68-1.29,2.51-.06.11-.08.29-.24.29-.16,0-.18-.18-.22-.3-.88-2.29-1.77-4.59-2.64-6.88-1.36-3.57-2.73-7.14-4.09-10.71-.16-.41-.32-.82-.46-1.24-.04-.13-.17-.36.09-.35,1.13.03,2.26-.16,3.38.1-.02.4.17.74.32,1.09,1.72,4.21,3.27,8.48,4.9,12.73.22.57.45,1.13.68,1.7Z"/>
  <path class="cls-7" d="M137.91,164.54c-1.31,0-2.62,0-3.93,0-.16,0-.37.09-.45-.13-.09-.24.04-.42.24-.53.41-.24.54-.61.55-1.07.07-3.51.1-7.01-.01-10.52-.03-.96-.05-1.2-1.05-1.16-.39.02-.4-.24-.41-.54-.01-.37.19-.39.48-.38,1.54.06,3.08.06,4.62,0,.3-.01.48.01.47.38,0,.3-.02.56-.41.54-1.12-.07-1.03.4-1.06,1.2-.11,3.45-.05,6.9-.04,10.35,0,.49.14.67.66.65,1.06-.04,2.12-.02,3.18-.12.48-.05.73-.26.78-.75.04-.36.13-.72.18-1.08.04-.29.18-.39.46-.38.33.02.29.22.28.44-.05.87-.11,1.73-.13,2.6,0,.4-.12.53-.53.53-1.29-.02-2.58,0-3.87,0v-.02Z"/>
  <path class="cls-7" d="M148.68,164.54c-1.27,0-2.54,0-3.82,0-.17,0-.41.11-.49-.16-.06-.22.04-.39.22-.49.5-.27.58-.72.58-1.23,0-3.39,0-6.79,0-10.18,0-.15,0-.31-.02-.46-.07-.78-.1-.84-.9-.87-.42-.02-.58-.16-.55-.59.02-.45.32-.34.57-.34,1.5.04,3.01.05,4.51,0,.26,0,.5-.04.5.35,0,.33-.04.59-.45.57-1.03-.05-1.01.32-1.03,1.11-.09,3.51-.06,7.02-.03,10.52,0,.42.11.57.56.56,1.08-.03,2.16-.01,3.24-.11.5-.05.77-.26.82-.78.03-.36.14-.72.18-1.08.04-.31.22-.37.48-.35.34.02.26.25.25.46-.05.85-.11,1.69-.12,2.54,0,.43-.13.57-.56.56-1.31-.03-2.62,0-3.93,0v-.02Z"/>
  <path class="cls-7" d="M128.83,150.22c.77,0,1.54,0,2.31,0,.26,0,.46,0,.45.35,0,.28.03.52-.37.58-1.04.15-1.08.17-1.1,1.23-.08,3.35-.07,6.7,0,10.06,0,.12.04.23.03.34-.02.6.27.87.87.87.24,0,.57-.06.58.37.01.36-.04.55-.49.54-1.54-.03-3.08-.01-4.62,0-.25,0-.46.02-.47-.33,0-.33.03-.53.44-.58,1.01-.12,1.03-.15,1.05-1.17.07-3.39.07-6.78,0-10.17-.02-1.02-.17-1.23-1.05-1.16-.42.03-.44-.26-.44-.58,0-.4.26-.34.51-.34.77,0,1.54,0,2.31,0h0Z"/>
  <path class="cls-6" d="M77.32,176.76c-4.97,0-9.94,0-14.92,0-.68,0-1.02-.57-.7-1.17.07-.14.19-.18.33-.18.13,0,.27,0,.4,0,9.91,0,19.81,0,29.72,0,.75,0,1.07.48.8,1.17-.09.23-.27.18-.43.19-.83,0-1.66,0-2.49,0-4.24,0-8.48,0-12.72,0Z"/>
  <path class="cls-6" d="M166.5,176.76c-4.97,0-9.95,0-14.92.01-.52,0-.7-.11-.7-.67,0-.56.17-.72.73-.72,9.97.01,19.93,0,29.9.02.21,0,.53-.13.62.15.11.34.11.73,0,1.08-.06.19-.3.12-.47.12-1.47,0-2.93,0-4.4,0-3.59,0-7.17,0-10.76,0Z"/>
  <path class="cls-6" d="M46.03,143.77c.34-.44.85-.24,1.26-.29,3.6-.44,7.11-1.2,10.48-2.58,2.65-1.09,5.12-2.5,7.12-4.59.36-.38.66-.46,1.07-.12.49.41,1.18.56,1.55,1.13-2.78,2.4-6.06,3.83-9.54,4.85-2.31.68-4.67,1.12-7.06,1.4-1.62.19-3.25.28-4.88.21Z"/>
  <path class="cls-6" d="M105.36,171.56c.75,0,1.5,0,2.25,0,.24,0,.42.04.39.35-.04.36-.08.73-.12,1.09-.02.15-.09.27-.25.27-.19,0-.21-.16-.2-.29.05-.7-.38-.82-.94-.84-1.82-.09-1.83-.1-1.83,1.7,0,1.11-.22,1,1,1.01.19,0,.39-.02.58,0,.38.03.58-.11.6-.5,0-.15,0-.34.23-.32.2.02.22.19.22.35,0,.58,0,1.15,0,1.73,0,.16-.05.32-.25.32-.18,0-.21-.16-.21-.29,0-.65-.45-.69-.94-.71q-1.26-.03-1.26,1.22c0,.42.02.85,0,1.27-.02.35.16.42.46.41.62-.01,1.23-.02,1.85,0,.48.01.78-.15.84-.66.02-.15.07-.3.13-.44.05-.11.15-.18.28-.14.1.04.15.13.13.23-.1.44-.07.88-.09,1.32-.02.29-.21.33-.44.33-1.44,0-2.89,0-4.33,0-.14,0-.29.01-.35-.14-.07-.16.07-.24.18-.32.22-.16.21-.39.22-.62,0-1.75,0-3.5.02-5.26,0-.4-.12-.63-.56-.6-.16.01-.33-.04-.31-.25.02-.21.2-.2.36-.2.79,0,1.58,0,2.37,0Z"/>
  <path class="cls-6" d="M134.64,100.16c-.01-1.44-.01-2.89-.04-4.33,0-.38.22-.38.49-.38,1,0,2,0,3.01,0,0,1.42,0,2.83.02,4.25,0,.37-.11.51-.49.5-.99-.03-1.99-.02-2.99-.02Z"/>
  <path class="cls-6" d="M127.34,175.52c.04-.77.06-1.54.3-2.28.46-1.38,1.76-2.02,3.01-1.51.63.26,1,.74,1.15,1.36.35,1.43.36,2.87-.08,4.27-.53,1.68-2.2,2.28-3.44,1.27-.49-.4-.72-.96-.8-1.55-.07-.51-.2-1.02-.14-1.55ZM128.36,175.13c0,.95,0,1.82.29,2.65.19.53.54.88,1.16.85.58-.03.86-.42.98-.91.37-1.56.36-3.13-.02-4.68-.17-.69-.63-1.02-1.18-.99-.55.02-.97.47-1.1,1.16-.12.67-.16,1.34-.14,1.93Z"/>
  <path class="cls-6" d="M141.32,175.51c-.48.4-.91.69-1.49.7-1.14,0-1.94-.73-1.99-1.87-.06-1.38.51-2.3,1.65-2.65,1.23-.39,2.5.24,2.83,1.49.71,2.69-.74,5.12-3.25,5.83-.07.02-.15.05-.22.06-.19.02-.44.04-.49-.18-.05-.23.21-.22.36-.28,1.56-.56,2.46-1.59,2.61-3.09ZM141.44,173.84c.01-.33-.03-.7-.21-1.06-.26-.51-.65-.8-1.24-.74-.73.07-1.19.75-1.18,1.72.01.97.48,1.64,1.2,1.71.91.09,1.44-.49,1.44-1.63Z"/>
  <path class="cls-6" d="M123.36,177.92c1.04,0,1.96.02,2.88,0,.4-.01.54.09.54.51,0,.39-.1.54-.52.53-1.25-.03-2.5,0-3.75-.01-.16,0-.37.08-.47-.12-.1-.21.06-.35.19-.5.86-.98,1.85-1.85,2.61-2.93.32-.45.52-.95.53-1.5.01-.76-.4-1.25-1.12-1.38-.72-.13-1.24.18-1.5.9-.06.17-.06.45-.32.4-.26-.05-.15-.3-.15-.49,0-.79.27-1.39,1.09-1.62.93-.26,1.81-.18,2.52.53.63.63.64,1.39.37,2.2-.24.7-.75,1.2-1.24,1.72-.53.55-1.12,1.05-1.65,1.77Z"/>
  <path class="cls-6" d="M110.53,179.07s-.22,0-.39-.02c-1.17-.17-1.23-.25-1-1.42.03-.13.02-.29.21-.29.17,0,.2.15.24.28.22.83.95,1.19,1.78.89.38-.14.59-.4.6-.82,0-.41-.27-.58-.59-.68-.42-.13-.85-.22-1.28-.35-.5-.14-.85-.45-.92-.99-.08-.57.06-1.07.57-1.41.81-.56,1.67-.45,2.55-.2.24.07.27.26.24.46-.04.28.12.6-.13.82-.15.13-.26-.01-.32-.18-.23-.63-.72-.91-1.37-.81-.41.07-.69.29-.71.71-.02.37.21.6.57.7.43.11.86.21,1.28.35,1.12.35,1.39,1.43.59,2.29-.42.46-.99.67-1.9.67Z"/>
  <path class="cls-6" d="M135.05,178.95c-.44,0-.88,0-1.33,0-.17,0-.38.03-.38-.23,0-.21.19-.23.34-.22.67.05.84-.29.83-.92-.02-1.52.14-3.03.02-4.55-.04-.48-.2-.52-.57-.34-.19.09-.38.18-.57.27-.14.06-.3.17-.39-.04-.07-.17-.08-.36.13-.44.73-.31,1.45-.61,2.19-.89.27-.1.32.11.31.33-.02.52-.07,1.04-.07,1.55-.01,1.38,0,2.77,0,4.15,0,.55.14.95.81.88.17-.02.39,0,.37.25-.02.2-.21.19-.36.19-.44,0-.88,0-1.33,0Z"/>
  <path class="cls-6" d="M115.16,173.21c0,.25.02.38,0,.51-.06.4.09.57.51.53.17-.02.35,0,.52,0,.16,0,.33,0,.35.22.02.19-.07.33-.26.4-.05.02-.11.02-.17.03-.32.04-.73-.15-.94.1-.23.28-.07.7-.09,1.06-.02.46-.02.92,0,1.39.02.7.25.88.94.76.14-.02.32-.14.4.07.06.16-.12.21-.2.31-.41.49-.95.49-1.48.31-.55-.19-.61-.68-.61-1.19.01-.73,0-1.46.02-2.19.01-.39,0-.71-.53-.61-.09.02-.2,0-.24-.12-.04-.14.07-.23.17-.25.7-.13.59-.66.6-1.16,0-.27-.14-.61.22-.76.22-.1.47-.36.68-.21.31.22.05.61.1.8Z"/>
  <path class="cls-6" d="M28.34,144.61c.57-.08,1.13-.19,1.7-.22.39-.02.48-.16.48-.52,0-.92.09-.94,1.02-1.02.84-.07,1.68.06,2.52.02.14,0,.33-.05.35.19-.38.02-.35.3-.32.54.09.63-.07.89-.79.92-1.49.07-2.95.4-4.44.44-.26,0-.58.09-.52-.37Z"/>
  <path class="cls-6" d="M117.89,178.97c-.38-.04-.64-.21-.64-.65,0-.42.23-.64.64-.64.42,0,.64.22.64.64,0,.42-.22.63-.65.65Z"/>
  <path class="cls-5" d="M139.36,139.74c.57-.21,1.16-.04,1.74-.1-.01.13-.09.22-.22.21-.51-.04-1.03.14-1.52-.11Z"/>
  <path class="cls-5" d="M33.17,115.68c-.22.18-.46.16-.69.03.22-.19.46-.17.69-.03Z"/>
  <path class="cls-5" d="M35.71,123.68c-.1-.07-.11-.16-.06-.26.11.07.21.13.06.26Z"/>
  <path class="cls-5" d="M204.83,142.78c.07-.12.15-.12.23,0-.08.1-.15.11-.23,0Z"/>
  <path class="cls-5" d="M200.78,95.56c-.1.02-.18-.02-.24-.11.18-.17.2-.02.24.11Z"/>
  <path class="cls-5" d="M161.68,100.32c.07-.12.14-.13.23-.03-.06.12-.14.13-.23.03Z"/>
  <path class="cls-7" d="M137.57,123.76c.23-.44.46-.89.69-1.35,3.6-7.12,7.21-14.24,10.81-21.35.22-.43.4-.88.53-1.34.14-.51-.06-.82-.53-.99-.63-.22-1.28-.26-1.94-.28-1.16-.03-2.31-.05-3.47-.03-.43,0-.57-.13-.56-.56.03-1.18-.04-.96.95-.96,6.03,0,12.07,0,18.1,0,.22,0,.59-.15.65.18.07.41.11.85-.04,1.25-.06.17-.31.09-.48.09-1.5.03-3-.02-4.5.19-1.49.2-2.44,1.03-3.07,2.34-1.1,2.27-2.22,4.54-3.33,6.8-4.88,9.93-9.77,19.85-14.64,29.78-.18.38-.39.49-.79.48-1.97-.05-3.93-.09-5.9-.1-.4,0-.61-.13-.78-.5-2.37-5.19-4.76-10.37-7.14-15.55-1.18-2.57-2.37-5.15-3.56-7.72-.08-.17-.11-.37-.35-.53-.28.62-.55,1.22-.81,1.83-3.16,7.3-6.33,14.61-9.47,21.92-.17.4-.39.53-.82.53-1.62,0-3.24.04-4.86.1-.46.02-.72-.11-.96-.52-5.19-9.02-10.4-18.03-15.6-27.05-2.21-3.84-4.39-7.7-6.56-11.56-.19-.34-.4-.44-.77-.44-1.41.02-2.81,0-4.22.02-.42,0-.58-.08-.57-.54.05-1.21-.14-1,1.01-1,8.46,0,16.93,0,25.39,0,.23,0,.59-.14.68.13.13.39.12.84,0,1.25-.06.19-.31.11-.47.11-1.35.01-2.7.02-4.05.02-.38,0-.6-.01-.33.48,4.18,7.73,8.35,15.47,12.51,23.21.06.11.09.25.32.31.36-.81.73-1.63,1.09-2.45,1.79-4.07,3.58-8.15,5.39-12.22.14-.33.17-.59.01-.92-1.22-2.64-2.43-5.29-3.62-7.94-.17-.37-.37-.51-.78-.5-1.18.03-2.35,0-3.53.02-.39,0-.55-.09-.54-.51.04-1.2-.12-.98.97-.98,8.17,0,16.35,0,24.52,0,.25,0,.63-.16.71.17.09.38.05.81-.02,1.2-.03.18-.3.11-.47.11-1.37,0-2.74.01-4.11,0-.46,0-.51.12-.35.53,3.14,8.19,6.27,16.38,9.4,24.57.04.1.03.24.24.29ZM87.07,98.33c-2.14,0-4.28.01-6.42,0-.52,0-.55.14-.32.55,1.11,1.93,2.22,3.88,3.32,5.82,2.13,3.73,4.24,7.46,6.38,11.18,2.04,3.55,4.11,7.1,6.17,10.64,1.9,3.28,3.81,6.56,5.69,9.85.21.37.44.55.86.5,1.17-.15,2.35-.09,3.52-.09.37,0,.47-.19.6-.48,1.63-3.64,3.27-7.27,4.91-10.9,1.15-2.56,2.3-5.13,3.45-7.69.76-1.69,1.53-3.37,2.28-5.05.14-.31.29-.4.66-.34.88.15,1.15.82,1.46,1.49.89,1.96,1.77,3.93,2.67,5.89,1.04,2.26,2.09,4.51,3.13,6.76,1.54,3.34,3.08,6.68,4.61,10.02.11.24.25.29.49.3,1.48.03,2.96.06,4.44.12.4.02.65-.11.83-.47.42-.87.84-1.73,1.27-2.6,2.31-4.74,4.61-9.49,6.94-14.22,3.37-6.82,6.77-13.63,10.15-20.45.07-.14.14-.27.2-.42.1-.26.03-.41-.28-.41-.54,0-1.08.02-1.62,0-.34-.02-.52.12-.66.42-.55,1.1-1.13,2.19-1.68,3.29-1.77,3.53-3.54,7.07-5.31,10.59-2.09,4.16-4.19,8.32-6.29,12.48-.09.18-.15.38-.43.41-.84.08-1.74-.43-2.04-1.21-.51-1.33-1.02-2.66-1.53-3.99-2.73-7.14-5.46-14.27-8.16-21.41-.18-.47-.41-.59-.88-.59-2.53.02-5.05,0-7.58,0-1.6,0-3.2,0-4.8,0-.66,0-.67.02-.39.64.21.48.43.95.64,1.42.98,2.15,1.96,4.31,2.95,6.46.19.42.16.8-.03,1.22-.68,1.49-1.34,2.99-2,4.48-1.67,3.74-3.34,7.48-5.01,11.22-.11.24-.24.32-.53.3-.8-.05-1.3-.45-1.67-1.14-1.49-2.78-3.01-5.55-4.51-8.33-2.81-5.25-5.61-10.5-8.4-15.75-.2-.37-.41-.53-.84-.52-2.08.02-4.16,0-6.25,0Z"/>
  <path class="cls-7" d="M201.84,116.41c2.24.55,4.42,1.18,6.48,2.17,2.69,1.29,5.03,3.01,6.66,5.55,2.95,4.59,1.92,9.89-2.55,13.24-2.49,1.87-5.36,2.74-8.37,3.29-3.34.62-6.71.56-10.08.32-4.69-.34-9.38-.69-14.07-1.01-4.6-.31-9.19-.58-13.79-.85-.39-.02-.48-.17-.47-.53.03-1.26-.14-1.04,1.04-1,1.21.04,2.42.12,3.64.21.41.03.52-.09.52-.5,0-12.78-.01-25.56,0-38.34,0-.44-.13-.56-.55-.55-1.39.02-2.78,0-4.16,0-.42,0-.63-.07-.61-.56.05-1.16-.13-.98.99-.98,8.81,0,17.62-.01,26.43,0,3.18,0,6.36.13,9.5.73,2.21.43,4.33,1.07,6.26,2.29,4.46,2.83,4.15,7.84,2.44,10.72-1.5,2.54-3.84,3.99-6.55,4.95-.9.32-1.83.54-2.75.81ZM171.96,118.31c0,1.85,0,3.7,0,5.55,0,4.62,0,9.25,0,13.87,0,.33-.07.64.46.65,1.42.05,2.84.12,4.26.25.75.07,1.5.07,2.25.12,1.67.11,3.34.21,5,.33.32.02.45-.09.45-.42.01-.94.07-1.88.08-2.83.01-1.54-.05-3.08-.06-4.62-.04-5.25-.03-10.5.06-15.75.06-3.14,0-6.28-.06-9.42-.05-2.35-.03-4.7,0-7.05,0-.52-.13-.69-.67-.68-3.68.02-7.36.03-11.04,0-.6,0-.73.17-.73.74.02,6.42.01,12.83.01,19.25ZM199.02,128.77v1.39c0,3.16,0,6.32,0,9.48,0,.27-.1.63.4.55,2.33-.37,4.69-.56,6.97-1.24,2.66-.79,5.11-1.94,6.92-4.14,2.13-2.59,2.58-6.18.83-9.21-1.42-2.45-3.5-4.15-5.96-5.45-2.67-1.41-5.6-2.01-8.49-2.71-.66-.16-.67-.13-.67.58,0,3.58,0,7.17,0,10.75ZM210.85,106.27c-.01-1.03-.29-2.23-1.04-3.29-1.03-1.46-2.51-2.29-4.12-2.94-1.97-.8-4.08-1.07-6.13-1.57-.46-.11-.55.11-.55.53.01,2.39.02,4.78,0,7.17-.03,3.04.1,6.08-.08,9.12-.03.5.12.62.63.49.69-.18,1.38-.36,2.06-.54,1.97-.54,3.92-1.09,5.63-2.29,2.22-1.58,3.57-3.62,3.6-6.66ZM185.82,128.08c0,3.35.01,6.7-.01,10.06,0,.52.14.68.66.71,2.13.13,4.26.3,6.4.45.96.07,1.92.15,2.88.01,1.61-.22,2.1-.77,2.1-2.38,0-5.37,0-10.75,0-16.12,0-.27-.01-.54-.03-.81-.05-.75-.43-1.3-1.05-1.7-.7-.46-1.5-.6-2.31-.63-2.68-.1-5.35-.18-8.03-.29-.48-.02-.62.09-.62.58.02,3.37.01,6.74.01,10.11ZM185.82,106.93c0,2.66,0,5.32,0,7.98,0,.27-.04.53.38.54,2.95.07,5.89.22,8.84.22,1.98,0,2.81-.95,2.81-2.93,0-3.83,0-7.67,0-11.5,0-1.22-.36-1.73-1.5-2.17-1.08-.41-2.2-.55-3.34-.56-2.22-.02-4.43-.01-6.65-.04-.44,0-.55.13-.55.55.02,2.64,0,5.28,0,7.92Z"/>
  <path class="cls-7" d="M50.14,116.78c0-5.86-.01-11.72.02-17.58,0-.61-.18-.74-.74-.72-1.37.04-2.74,0-4.11.03-.42,0-.58-.09-.57-.54.02-1.06,0-1.06,1.08-1.06,8.31,0,16.62,0,24.92,0,.23,0,.59-.16.65.17.09.4.11.85-.03,1.25-.06.18-.31.1-.48.1-1.37,0-2.74.03-4.11,0-.54-.02-.67.15-.67.68.01,11.45.01,22.9.01,34.35,0,.15,0,.31,0,.46.02.27-.11.33-.35.27-.71-.17-1.22.1-1.72.63-2.31,2.44-5.17,3.99-8.31,5.07-4.25,1.46-8.62,2.24-13.11,2.13-2.58-.07-5.14-.47-7.71-.71-1.67-.16-3.34-.33-4.99.19-.52.16-.9.44-.99,1.01-.04.25-.14.37-.4.39-.58.05-1.15.12-1.72.2-.31.04-.43-.07-.41-.38,0-.1,0-.19,0-.29,0-8.1,0-16.19-.01-24.29,0-.57.12-.79.72-.77.69.03,1.39-.03,2.08-.1.38-.04.51.1.55.46.16,1.46.3,2.91.5,4.36.54,3.89,1.36,7.71,3.02,11.29,1.22,2.61,3.06,4.7,5.76,5.84,2.56,1.09,5.2,1.05,7.79.08,2.04-.77,3.02-2.42,3.25-4.54.05-.48.06-.96.06-1.44,0-5.51,0-11.03,0-16.54ZM64.74,115.48h0c0-.98,0-1.97,0-2.95,0-4.51,0-9.02,0-13.53,0-.5-.09-.7-.65-.7-4.07.03-8.13.02-12.2,0-.55,0-.74.19-.68.7.02.13,0,.27,0,.4.07,11.02-.1,22.04.09,33.06.04,2.54-.57,4.99-.97,7.47-.09.54.07.57.5.41.99-.36,1.99-.73,2.99-1.06,2.76-.9,5.43-1.97,7.7-3.85.95-.79,1.78-1.7,2.73-2.49.37-.31.5-.6.5-1.06-.01-5.47,0-10.94,0-16.42ZM27.49,130.03c0,3.47,0,6.94,0,10.41,0,.62,0,.62.56.31,1.16-.64,2.38-1.04,3.74-1.02,1.14.01,2.27.08,3.39.26.31.05.79.3.9.04.13-.29-.32-.59-.54-.86-.71-.86-1.55-1.64-2.12-2.58-2.48-4.09-3.83-8.58-4.41-13.31-.15-1.24-.19-2.49-.31-3.73-.03-.29.04-.65-.48-.58-.44.06-.74.09-.74.72.04,3.45.02,6.9.02,10.35Z"/>
  <path class="cls-6" d="M101.99,100.19c.35.96.91,1.81,1.39,2.71,2.15,4.04,4.32,8.06,6.48,12.1.09.6-.27,1.07-.47,1.58-.23.57-.5,1.13-.75,1.69-.05.11-.04.3-.22.31-.17,0-.2-.15-.27-.27-.51-.95-1.03-1.89-1.54-2.84-2.35-4.35-4.69-8.7-7.04-13.04-.35-.64-.69-1.29-1.02-1.94-.08-.15-.26-.4.11-.4,1.04,0,2.08,0,3.12.02.07,0,.14.06.21.09Z"/>
  <path class="cls-6" d="M105.04,100.1c-.89.02-1.78.04-2.67.06,0-1.44,0-2.88-.02-4.32,0-.3.12-.41.41-.4.56.01,1.11.03,1.67,0,.44-.03.6.1.59.57-.02,1.36.01,2.72.02,4.09Z"/>
  <path class="cls-4" d="M87.07,98.33c2.08,0,4.16.01,6.25,0,.43,0,.64.15.84.52,2.79,5.26,5.59,10.51,8.4,15.75,1.49,2.78,3.01,5.55,4.51,8.33.37.69.87,1.09,1.67,1.14.29.02.42-.06.53-.3,1.67-3.74,3.34-7.48,5.01-11.22.67-1.49,1.32-2.99,2-4.48.19-.42.22-.8.03-1.22-.99-2.15-1.97-4.31-2.95-6.46-.22-.47-.43-.95-.64-1.42-.27-.62-.26-.64.39-.64,1.6,0,3.2,0,4.8,0,2.53,0,5.05.01,7.58,0,.47,0,.7.12.88.59,2.71,7.14,5.44,14.28,8.16,21.41.51,1.33,1.01,2.66,1.53,3.99.3.78,1.2,1.29,2.04,1.21.27-.03.33-.23.43-.41,2.1-4.16,4.2-8.32,6.29-12.48,1.78-3.53,3.54-7.06,5.31-10.59.55-1.1,1.13-2.19,1.68-3.29.15-.3.32-.43.66-.42.54.03,1.08.01,1.62,0,.3,0,.37.15.28.41-.05.14-.13.28-.2.42-3.38,6.82-6.78,13.63-10.15,20.45-2.34,4.73-4.63,9.48-6.94,14.22-.42.87-.85,1.73-1.27,2.6-.17.36-.42.49-.83.47-1.48-.06-2.96-.09-4.44-.12-.23,0-.38-.06-.49-.3-1.53-3.35-3.07-6.69-4.61-10.02-1.04-2.26-2.09-4.51-3.13-6.76-.9-1.96-1.78-3.93-2.67-5.89-.3-.67-.58-1.34-1.46-1.49-.37-.06-.52.03-.66.34-.75,1.69-1.52,3.37-2.28,5.05-1.15,2.56-2.3,5.13-3.45,7.69-1.64,3.63-3.28,7.26-4.91,10.9-.13.29-.23.48-.6.48-1.17,0-2.35-.06-3.52.09-.42.05-.65-.13-.86-.5-1.89-3.29-3.79-6.57-5.69-9.85-2.06-3.55-4.12-7.09-6.17-10.64-2.14-3.72-4.26-7.45-6.38-11.18-1.11-1.94-2.21-3.88-3.32-5.82-.23-.41-.2-.56.32-.55,2.14.02,4.28,0,6.42,0ZM88.69,101.24c-.91,0-1.81,0-2.72,0-.24,0-.56-.13-.69.11-.13.24.12.46.23.67.59,1.05,1.19,2.1,1.79,3.15,1.21,2.12,2.42,4.24,3.63,6.36,1.22,2.13,2.45,4.27,3.67,6.4,1.11,1.93,2.21,3.87,3.33,5.79,1.26,2.18,2.54,4.34,3.81,6.52.63,1.08,1.25,2.16,1.85,3.25.2.36.49.36.83.37.28,0,.42-.14.52-.37.86-2.03,1.72-4.07,2.6-6.1.15-.35.16-.52-.29-.65-.87-.24-1.59-.72-2.13-1.48-.79-1.1-1.34-2.33-1.98-3.5-2.09-3.79-4.13-7.6-6.18-11.41-1.55-2.88-3.08-5.76-4.61-8.65-.19-.36-.43-.49-.82-.48-.94.02-1.89,0-2.83,0ZM120.58,101.24c-1.04,0-2.08,0-3.12,0-.35,0-.46.07-.29.42.47.99.92,1.99,1.38,2.98.68,1.46,1.2,2.93.41,4.53-.15.3.06.35.29.41,1.22.31,2.08,1.09,2.61,2.19,1.04,2.16,2.02,4.36,3.02,6.54,1.48,3.21,2.96,6.43,4.44,9.64.71,1.54,1.43,3.07,2.12,4.61.71,1.57.25,1.27,1.97,1.31.27,0,.43-.1.54-.34.73-1.65,1.66-3.2,2.38-4.86.15-.35.06-.49-.27-.59-1.5-.42-2.28-1.51-2.81-2.89-1.24-3.29-2.5-6.57-3.76-9.85-1.15-3-2.3-5.99-3.44-8.98-.57-1.51-1.14-3.02-1.7-4.53-.16-.44-.42-.62-.91-.6-.96.04-1.93.01-2.89.01Z"/>
  <path class="cls-4" d="M171.96,118.31c0-6.42,0-12.83-.01-19.25,0-.57.12-.75.73-.74,3.68.03,7.36.03,11.04,0,.54,0,.67.16.67.68-.02,2.35-.05,4.7,0,7.05.07,3.14.12,6.28.06,9.42-.09,5.25-.1,10.5-.06,15.75.01,1.54.07,3.08.06,4.62,0,.94-.06,1.88-.08,2.83,0,.33-.13.44-.45.42-1.67-.11-3.33-.22-5-.33-.75-.05-1.5-.06-2.25-.12-1.42-.13-2.84-.2-4.26-.25-.53-.02-.46-.33-.46-.65,0-4.62,0-9.25,0-13.87,0-1.85,0-3.7,0-5.55ZM174.87,118.35c0,4.86,0,9.72,0,14.57,0,.71,0,1.43,0,2.14,0,.31.07.51.44.53,1.82.1,3.64.21,5.45.35.54.04.72-.11.72-.69-.02-6.66-.01-13.32-.01-19.98,0-4.45-.01-8.91.01-13.36,0-.57-.17-.71-.71-.7-1.73.03-3.47.04-5.2,0-.56-.01-.7.16-.7.71.02,5.47.01,10.95.01,16.42Z"/>
  <path class="cls-4" d="M199.02,128.77c0-3.58,0-7.17,0-10.75,0-.71,0-.74.67-.58,2.89.7,5.83,1.3,8.49,2.71,2.46,1.3,4.55,3,5.96,5.45,1.75,3.03,1.31,6.62-.83,9.21-1.81,2.2-4.26,3.35-6.92,4.14-2.28.68-4.64.87-6.97,1.24-.5.08-.4-.28-.4-.55,0-3.16,0-6.32,0-9.48v-1.39ZM201.93,128.92c0,2.47.01,4.93-.01,7.4,0,.5.18.59.62.52,1.42-.23,2.81-.6,4.16-1.09,1.91-.69,3.61-1.68,4.79-3.41.59-.86.86-1.83.81-2.82-.08-1.67-.86-3.07-2.03-4.27-2.13-2.18-4.83-3.28-7.67-4.12-.67-.2-.68-.17-.68.51,0,2.43,0,4.85,0,7.28Z"/>
  <path class="cls-4" d="M210.85,106.27c-.03,3.05-1.37,5.09-3.6,6.66-1.7,1.21-3.66,1.76-5.63,2.29-.69.19-1.37.37-2.06.54-.5.13-.65.01-.63-.49.17-3.04.05-6.08.08-9.12.02-2.39.01-4.78,0-7.17,0-.41.09-.64.55-.53,2.05.51,4.16.77,6.13,1.57,1.6.65,3.09,1.48,4.12,2.94.75,1.06,1.03,2.26,1.04,3.29ZM201.93,106.96c0,1.48,0,2.97,0,4.45,0,.62.12.71.72.51.44-.14.86-.32,1.29-.5,2.07-.88,3.67-2.15,3.94-4.58.13-1.2-.2-2.21-1.19-2.92-1.23-.89-2.62-1.43-4.09-1.78-.64-.15-.67-.14-.67.49,0,1.44,0,2.89,0,4.33Z"/>
  <path class="cls-5" d="M185.82,128.08c0-3.37.01-6.74-.01-10.11,0-.5.14-.6.62-.58,2.67.12,5.35.19,8.03.29.82.03,1.61.17,2.31.63.62.4,1,.95,1.05,1.7.02.27.03.54.03.81,0,5.37,0,10.75,0,16.12,0,1.61-.49,2.16-2.1,2.38-.96.13-1.92.06-2.88-.01-2.13-.16-4.26-.33-6.4-.45-.52-.03-.67-.19-.66-.71.03-3.35.01-6.7.01-10.06ZM191.55,137.36c.16.3.33.27.52.02.15-.01.31-.05.46-.03.95.11,1.91.19,2.87.21.76.02.77,0,.77-.77,0-5.35,0-10.71,0-16.06,0-.9-.35-1.29-1.26-1.34-1-.06-1.99-.16-2.99-.13-.73.03-.74,0-.74.77,0,2.91,0,5.82,0,8.72,0,2.66,0,5.32,0,7.97,0,.29-.06.61.38.62ZM190.96,128.3c0-2.85,0-5.7,0-8.55,0-.45-.11-.61-.58-.59-.75.03-1.5.04-2.25-.01-.56-.04-.67.17-.66.68.02,4.7.01,9.4.01,14.1,0,.94,0,1.89,0,2.83,0,.25,0,.44.35.47.84.05,1.68.13,2.52.22.47.05.63-.1.63-.59-.02-2.85-.01-5.7-.01-8.55Z"/>
  <path class="cls-5" d="M185.82,106.93c0-2.64,0-5.28,0-7.92,0-.43.11-.56.55-.55,2.22.03,4.43.02,6.65.04,1.14.01,2.27.15,3.34.56,1.14.44,1.5.96,1.5,2.17,0,3.83,0,7.67,0,11.5,0,1.98-.83,2.94-2.81,2.93-2.95,0-5.89-.15-8.84-.22-.43-.01-.38-.27-.38-.54,0-2.66,0-5.32,0-7.98ZM191.17,107.02c0,2.1,0,4.2,0,6.3,0,.24-.07.49.33.54,1.29.15,2.58.11,3.86.1.56,0,.79-.27.79-.83,0-3.95,0-7.9,0-11.85,0-.34-.1-.56-.43-.65-.52-.14-1.01-.35-1.57-.33-.81.03-1.62.04-2.43,0-.47-.02-.58.15-.58.59.02,2.04,0,4.09,0,6.13ZM187.48,107.02c0,2.04.02,4.08-.01,6.12,0,.57.19.76.73.71.36-.03.73.01,1.1,0,.53-.03,1.2.24,1.56-.11.33-.33.1-.99.1-1.51,0-3.79,0-7.59.02-11.38,0-.54-.16-.7-.68-.67-.71.04-1.43.04-2.14,0-.52-.03-.7.11-.69.66.03,2.06.01,4.12.01,6.18Z"/>
  <path class="cls-4" d="M64.74,115.48c0,5.47,0,10.94,0,16.42,0,.46-.13.75-.5,1.06-.94.79-1.78,1.71-2.73,2.49-2.26,1.88-4.93,2.95-7.7,3.85-1.01.33-2,.7-2.99,1.06-.43.16-.59.13-.5-.41.4-2.48,1.02-4.93.97-7.47-.2-11.02-.02-22.04-.09-33.06,0-.13.01-.27,0-.4-.06-.51.12-.7.68-.7,4.07.02,8.13.02,12.2,0,.57,0,.66.2.65.7-.02,4.51,0,9.02,0,13.53,0,.98,0,1.97,0,2.95h0ZM61.74,116.21c0-4.8,0-9.6,0-14.39,0-.45-.11-.6-.58-.59-2.08.02-4.16.04-6.24,0-.62-.01-.72.19-.72.75.02,10.58,0,21.16.02,31.73,0,.64-.14,1.26-.14,1.89,0,.43.15.5.52.35.39-.17.79-.31,1.18-.47,1.99-.84,3.75-2.01,5.28-3.55.47-.48.71-1,.7-1.73-.04-4.66-.02-9.33-.02-13.99Z"/>
  <path class="cls-4" d="M27.49,130.03c0-3.45.02-6.9-.02-10.35,0-.62.29-.65.74-.72.52-.08.45.29.48.58.13,1.24.16,2.49.31,3.73.58,4.74,1.93,9.22,4.41,13.31.57.94,1.41,1.72,2.12,2.58.23.27.67.57.54.86-.12.27-.6.01-.9-.04-1.12-.18-2.25-.25-3.39-.26-1.36-.02-2.58.38-3.74,1.02-.55.31-.56.31-.56-.31,0-3.47,0-6.94,0-10.41Z"/>
  <path class="cls-1" d="M88.69,101.24c.94,0,1.89.02,2.83,0,.4,0,.64.12.82.48,1.53,2.89,3.06,5.77,4.61,8.65,2.05,3.81,4.09,7.62,6.18,11.41.65,1.17,1.19,2.4,1.98,3.5.55.76,1.27,1.24,2.13,1.48.44.12.44.29.29.65-.87,2.03-1.73,4.06-2.6,6.1-.1.23-.24.37-.52.37-.34,0-.63,0-.83-.37-.6-1.09-1.23-2.18-1.85-3.25-1.27-2.17-2.54-4.34-3.81-6.52-1.12-1.93-2.22-3.86-3.33-5.79-1.22-2.13-2.45-4.26-3.67-6.4-1.21-2.12-2.42-4.24-3.63-6.36-.6-1.05-1.2-2.1-1.79-3.15-.12-.21-.37-.44-.23-.67.14-.24.46-.11.69-.11.91-.01,1.81,0,2.72,0Z"/>
  <path class="cls-1" d="M120.58,101.24c.96,0,1.93.03,2.89-.01.49-.02.75.16.91.6.56,1.51,1.12,3.02,1.7,4.53,1.14,3,2.3,5.99,3.44,8.98,1.26,3.28,2.52,6.56,3.76,9.85.52,1.38,1.31,2.48,2.81,2.89.33.09.42.24.27.59-.72,1.66-1.65,3.21-2.38,4.86-.11.24-.27.35-.54.34-1.73-.04-1.27.26-1.97-1.31-.69-1.54-1.41-3.07-2.12-4.61-1.48-3.21-2.96-6.43-4.44-9.64-1-2.18-1.98-4.38-3.02-6.54-.53-1.1-1.39-1.88-2.61-2.19-.23-.06-.44-.11-.29-.41.78-1.59.27-3.07-.41-4.53-.47-.99-.91-1.99-1.38-2.98-.17-.36-.06-.43.29-.42,1.04.01,2.08,0,3.12,0Z"/>
  <path class="cls-1" d="M174.87,118.35c0-5.47,0-10.95-.01-16.42,0-.55.14-.72.7-.71,1.73.04,3.47.04,5.2,0,.55-.01.72.13.71.7-.02,4.45-.01,8.91-.01,13.36,0,6.66,0,13.32.01,19.98,0,.57-.17.73-.72.69-1.82-.14-3.63-.25-5.45-.35-.37-.02-.44-.22-.44-.53,0-.71,0-1.43,0-2.14,0-4.86,0-9.72,0-14.57Z"/>
  <path class="cls-1" d="M201.93,128.92c0-2.43,0-4.85,0-7.28,0-.68.01-.71.68-.51,2.84.84,5.55,1.94,7.67,4.12,1.17,1.2,1.94,2.6,2.03,4.27.05.99-.22,1.96-.81,2.82-1.19,1.73-2.88,2.71-4.79,3.41-1.35.49-2.74.86-4.16,1.09-.44.07-.62-.03-.62-.52.02-2.47.01-4.93.01-7.4Z"/>
  <path class="cls-1" d="M201.93,106.96c0-1.44,0-2.89,0-4.33,0-.63.03-.64.67-.49,1.47.34,2.86.89,4.09,1.78.99.72,1.32,1.73,1.19,2.92-.26,2.43-1.87,3.71-3.94,4.58-.42.18-.85.36-1.29.5-.6.2-.72.11-.72-.51,0-1.48,0-2.97,0-4.45Z"/>
  <path class="cls-6" d="M190.96,128.3c0,2.85-.01,5.7.01,8.55,0,.5-.16.65-.63.59-.84-.09-1.68-.17-2.52-.22-.34-.02-.35-.22-.35-.47,0-.94,0-1.89,0-2.83,0-4.7,0-9.4-.01-14.1,0-.51.11-.72.66-.68.75.05,1.5.05,2.25.01.47-.02.58.15.58.59-.02,2.85,0,5.7,0,8.55Z"/>
  <path class="cls-6" d="M191.55,137.36c.17,0,.35.02.52.02-.18.25-.36.28-.52-.02Z"/>
  <path class="cls-6" d="M187.48,107.02c0-2.06.02-4.12-.01-6.18,0-.55.17-.69.69-.66.71.04,1.43.04,2.14,0,.52-.03.68.13.68.67-.02,3.79,0,7.59-.02,11.38,0,.51.22,1.17-.1,1.51-.35.36-1.02.08-1.56.11-.36.02-.73-.03-1.1,0-.54.05-.74-.14-.73-.71.03-2.04.01-4.08.01-6.12Z"/>
  <path class="cls-1" d="M61.74,116.21c0,4.66-.02,9.33.02,13.99,0,.73-.23,1.25-.7,1.73-1.52,1.53-3.29,2.7-5.28,3.55-.39.17-.79.31-1.18.47-.37.16-.52.09-.52-.35,0-.64.14-1.26.14-1.89-.01-10.58,0-21.16-.02-31.73,0-.56.1-.76.72-.75,2.08.04,4.16.03,6.24,0,.47,0,.58.14.58.59-.01,4.8,0,9.6,0,14.39Z"/>
</svg>